<?xml version="1.0" ?><!DOCTYPE svg  PUBLIC '-//W3C//DTD SVG 1.1//EN'  'http://www.w3.org/Graphics/SVG/1.1/DTD/svg11.dtd'><svg enable-background="new 0 0 48 48" height="48px" version="1.1" viewBox="0 0 48 48" width="48px" xml:space="preserve" xmlns="http://www.w3.org/2000/svg" xmlns:xlink="http://www.w3.org/1999/xlink"><g id="Layer_4"><g><path d="M18.986,10.155h10.03c0.898,0,1.627-0.727,1.627-1.626V5.682c0-0.898-0.729-1.626-1.627-1.626h-2.05    c0.085-0.284,0.145-0.579,0.145-0.89c0-1.719-1.394-3.111-3.11-3.111c-1.718,0-3.11,1.392-3.11,3.111    c0,0.311,0.06,0.606,0.145,0.89h-2.049c-0.9,0-1.628,0.728-1.628,1.626v2.847C17.358,9.428,18.086,10.155,18.986,10.155z     M24,1.428c0.959,0,1.737,0.777,1.737,1.738c0,0.958-0.778,1.736-1.737,1.736c-0.959,0-1.737-0.778-1.737-1.736    C22.263,2.205,23.041,1.428,24,1.428z" fill="#241F20"/><path d="M33.008,7.776v2.407c0,1.218-0.988,2.203-2.205,2.203H17.198c-1.217,0-2.205-0.985-2.205-2.203V7.776    h-4.574v40.169h27.162V7.776H33.008z M28.91,38.963h-3.324v3.322h-3.172v-3.322h-3.323v-3.174h3.323v-3.322h3.172v3.322h3.324    V38.963z M31.867,28.023H16.133v-3.171h15.734V28.023z M31.867,21.397H16.133v-3.171h15.734V21.397z" fill="#241F20"/></g></g></svg>